<svg viewBox="0 0 100 20" fill="none" xmlns="http://www.w3.org/2000/svg"><path d="M86.91.28h2.78l3.2 13.3 3.2-13.3h2.46l-4.47 19.45h-2.37l-4.8-19.45Zm-1.12 0h2.64l.41 12.83v6.62h-3.05v-19.45Zm11.55 0h2.66v19.45h-3.05v-6.62l.4-12.83Zm-21.24 0 2.4 8.76 2.38-8.76h3.45l-4.24 12.39v7.06h-3.19v-7.06l-4.24-12.39h3.44Zm-3.84 9.23v8.02c-.22.3-.55.64-.98 1.03a5.98 5.98 0 0 1-4.19 1.44 4.93 4.93 0 0 1-4.2-2.04 7.6 7.6 0 0 1-1.16-2.6c-.27-1.04-.4-2.27-.4-3.7v-3.31c0-1.4.13-2.63.38-3.67a7.72 7.72 0 0 1 1.12-2.62 4.73 4.73 0 0 1 4.07-2.06c1.18 0 2.15.24 2.9.73a4.5 4.5 0 0 1 1.73 2.18c.4.96.64 2.14.72 3.54h-3.06a6.91 6.91 0 0 0-.34-1.92c-.16-.46-.4-.8-.7-.99-.3-.2-.7-.3-1.18-.3-.41 0-.78.09-1.09.27-.3.18-.57.48-.78.89-.2.4-.36.93-.46 1.57-.1.64-.15 1.43-.15 2.35v3.34c0 .92.05 1.7.17 2.35.12.65.28 1.18.5 1.6.24.4.53.7.87.89.36.18.77.27 1.25.27a2.3 2.3 0 0 0 1.47-.45l.35-.27v-3.59h-2.26v-2.95h5.42Zm-23.71-9.23h5.04c1.06 0 1.95.22 2.7.67a4.3 4.3 0 0 1 1.7 1.98c.4.87.6 1.95.6 3.23 0 1.05-.12 1.95-.35 2.7a5.22 5.22 0 0 1-.98 1.85c-.43.5-.93.89-1.53 1.18l-.96.7h-4.1v-3.24h2.84c.43 0 .79-.11 1.07-.35.29-.24.5-.57.64-1 .14-.43.21-.94.21-1.52 0-.61-.06-1.14-.2-1.58a1.97 1.97 0 0 0-.59-1.01 1.5 1.5 0 0 0-1.05-.36h-1.88v16.2h-3.16v-19.45Zm7.14 19.45-2.88-8.67 3.31-.01 2.95 8.5v.18h-3.38Zm-9.78-3.23v3.23h-6.84v-3.23h6.84Zm-5.86-16.22v19.45h-3.16v-19.45h3.16Zm4.94 7.88v3.14h-5.92v-3.14h5.92Zm.9-7.88v3.25h-6.82v-3.25h6.82Zm-15.45 12.6h-3.22v-3.25h3.22c.45 0 .81-.12 1.1-.37.28-.25.49-.6.62-1.03a5.69 5.69 0 0 0-.01-3.06 2.75 2.75 0 0 0-.62-1.19 1.4 1.4 0 0 0-1.09-.45h-2.2v16.2h-3.16v-19.45h5.36c1.06 0 1.97.28 2.73.83a5.2 5.2 0 0 1 1.76 2.28c.4.97.61 2.07.61 3.32s-.2 2.34-.61 3.27c-.4.92-1 1.63-1.76 2.14-.76.5-1.67.76-2.73.76Zm-10.94-12.6h3.16v13.36a8.6 8.6 0 0 1-.67 3.66 4.42 4.42 0 0 1-1.83 2.06c-.78.43-1.67.64-2.67.64s-1.9-.21-2.7-.64a4.4 4.4 0 0 1-1.83-2.06 8.84 8.84 0 0 1-.65-3.66v-13.36h3.16v13.36c0 .85.07 1.5.23 1.95.15.46.38.77.68.94.3.16.67.24 1.11.24.45 0 .81-.08 1.1-.24.3-.17.52-.48.67-.94.16-.45.24-1.1.24-1.95v-13.36Zm-12.37 14.34c0-.35-.02-.67-.07-.95a1.98 1.98 0 0 0-.33-.8 3.1 3.1 0 0 0-.7-.71c-.3-.24-.7-.5-1.19-.75-.58-.3-1.15-.62-1.7-.96a8.06 8.06 0 0 1-1.48-1.2 5.17 5.17 0 0 1-1.42-3.8c0-.82.12-1.56.35-2.23a4.91 4.91 0 0 1 2.61-2.82 5.1 5.1 0 0 1 4.64.39 5.03 5.03 0 0 1 1.72 2.12c.4.9.61 1.94.61 3.1h-3.15c0-.55-.07-1.04-.2-1.45a2.04 2.04 0 0 0-.6-1 1.55 1.55 0 0 0-1.05-.37c-.4 0-.74.1-1 .31-.27.2-.46.47-.6.82-.11.33-.18.72-.18 1.14a2 2 0 0 0 .19.87c.13.25.3.48.53.68.22.2.48.4.79.58.3.19.65.37 1.01.55.72.34 1.35.73 1.9 1.15a5.9 5.9 0 0 1 2.2 3.11 7.82 7.82 0 0 1-.07 4.4 4.43 4.43 0 0 1-2.55 2.8 5.7 5.7 0 0 1-4.1.01 4.86 4.86 0 0 1-2.87-3.14 8.78 8.78 0 0 1-.42-2.87h3.17a7 7 0 0 0 .14 1.51c.1.41.24.74.43.99a2 2 0 0 0 .71.55c.3.11.62.17.99.17.42 0 .75-.1 1-.3.24-.19.42-.45.53-.78.11-.33.16-.7.16-1.12Z" fill="#fff"/></svg>